<?xml version="1.0" encoding="UTF-8"?>
<svg width="20px" height="20px" viewBox="0 0 20 20" version="1.1" xmlns="http://www.w3.org/2000/svg">
    <g stroke="none" stroke-width="1" fill="none" fill-rule="evenodd">
        <path d="M10,0 C15.5228475,0 20,4.4771525 20,10 C20,15.5228475 15.5228475,20 10,20 C4.4771525,20 0,15.5228475 0,10 C0,4.4771525 4.4771525,0 10,0 Z M10,1.5 C5.30557963,1.5 1.5,5.30557963 1.5,10 C1.5,14.6944204 5.30557963,18.5 10,18.5 C14.6944204,18.5 18.5,14.6944204 18.5,10 C18.5,5.30557963 14.6944204,1.5 10,1.5 Z M10,14 C10.5522847,14 11,14.4477153 11,15 C11,15.5522847 10.5522847,16 10,16 C9.44771525,16 9,15.5522847 9,15 C9,14.4477153 9.44771525,14 10,14 Z M10,5 C11.6568542,5 13,6.34314575 13,8 C13,9.12004451 12.4091907,10.0992504 11.5,10.6289322 L11.5,11.5 C11.5,11.7761424 11.2761424,12 11,12 L9,12 C8.72385763,12 8.5,11.7761424 8.5,11.5 L8.5,10 C8.5,9.72385763 8.72385763,9.5 9,9.5 C9.82842712,9.5 10.5,8.82842712 10.5,8 C10.5,7.17157288 9.82842712,6.5 9,6.5 C8.17157288,6.5 7.5,7.17157288 7.5,8 C7.5,8.27614237 7.27614237,8.5 7,8.5 L5,8.5 C4.72385763,8.5 4.5,8.27614237 4.5,8 C4.5,6.34314575 5.84314575,5 7.5,5 L10,5 Z" fill="#6B7280" fill-rule="nonzero"></path>
    </g>
</svg>
